# xmcd
#
# Track frame offsets:
#	150
#	18170
#	35933
#	58258
#	75620
#	98245
#	116020
#	137583
#	157545
#	173970
#	193445
#	210195
#	227045
#	246083
#	260883
#	284333
#	310108
#
# Disc length: 4421
#
# Revision: 1
# Processed by: cddbd v1.5.1PL0 Copyright (c) Steve Scherf et al.
# Submitted via: ExactAudioCopy v0.90b4
# Normalized: r0:DSETVAR1,TDELIM( - )
#
DISCID=ed114311
DTITLE=Various Artist - Best of Body Soul
DYEAR=2003
DGENRE=Soul
TTITLE0=Lionel Richie - Say you say me
TTITLE1=Earth Wind and Fire - After the love has gone
TTITLE2=Babyface - Everytime I close my eyes
TTITLE3=Luther Vandross - Never too much
TTITLE4=Regina Belle - Love T.K.O
TTITLE5=Eternal - Stay
TTITLE6=Peabo Bryson - Soul Provider
TTITLE7=Ginuwine - Pony
TTITLE8=Gee Morris - It's in your smile
TTITLE9=Diana King - Shy Guy
TTITLE10=Soul To Soul - Back to live
TTITLE11=Jocelyn B Smith - Back in my life
TTITLE12=Zhane - Hey Mr DJ
TTITLE13=Mary Mary - Shakless
TTITLE14=Daryl Hall - I'm in a phily mood
TTITLE15=Isley Jasper Isley - Caravn of love
TTITLE16=Barry White - Just the way you are
EXTD=
EXTT0=
EXTT1=
EXTT2=
EXTT3=
EXTT4=
EXTT5=
EXTT6=
EXTT7=
EXTT8=
EXTT9=
EXTT10=
EXTT11=
EXTT12=
EXTT13=
EXTT14=
EXTT15=
EXTT16=
PLAYORDER=
